<?xml version="1.0" encoding="utf-8"?>
<!-- Generator: Adobe Illustrator 15.1.0, SVG Export Plug-In . SVG Version: 6.00 Build 0)  -->
<!DOCTYPE svg PUBLIC "-//W3C//DTD SVG 1.1//EN" "http://www.w3.org/Graphics/SVG/1.1/DTD/svg11.dtd">
<svg version="1.1" id="Layer_1" xmlns="http://www.w3.org/2000/svg" xmlns:xlink="http://www.w3.org/1999/xlink" x="0px" y="0px"
	 width="100px" height="100px" viewBox="0 0 100 100" enable-background="new 0 0 100 100" xml:space="preserve">
<path id="pause-3-icon" d="M50.125,30.081c5.332,0,10.342,2.048,14.106,5.768c3.749,3.704,5.813,8.624,5.813,13.854
	s-2.064,10.15-5.813,13.854c-3.765,3.719-8.774,5.768-14.106,5.768s-10.342-2.049-14.106-5.768
	c-3.749-3.704-5.813-8.624-5.813-13.854s2.064-10.15,5.813-13.854C39.783,32.129,44.793,30.081,50.125,30.081 M50.125,25.28
	c-13.652,0-24.72,10.935-24.72,24.423c0,13.487,11.067,24.422,24.72,24.422s24.72-10.935,24.72-24.422
	C74.845,36.215,63.777,25.28,50.125,25.28L50.125,25.28z M48.236,60.503h-6.292v-21.6h6.292V60.503z M58.546,60.503h-6.292v-21.6
	h6.292V60.503z"/>
</svg>
