<?xml version="1.0" encoding="utf-8"?>
<!-- Generator: Adobe Illustrator 15.1.0, SVG Export Plug-In . SVG Version: 6.00 Build 0)  -->
<!DOCTYPE svg PUBLIC "-//W3C//DTD SVG 1.1//EN" "http://www.w3.org/Graphics/SVG/1.1/DTD/svg11.dtd">
<svg version="1.1" id="Layer_1" xmlns="http://www.w3.org/2000/svg" xmlns:xlink="http://www.w3.org/1999/xlink" x="0px" y="0px"
	 width="100px" height="100px" viewBox="0 0 100 100" enable-background="new 0 0 100 100" xml:space="preserve">
<path id="arrow-28-icon" d="M50.001,30.08c-11.009,0-19.92,8.91-19.92,19.92s8.909,19.92,19.92,19.92
	c11.01,0,19.92-8.908,19.92-19.92C69.921,38.991,61.012,30.08,50.001,30.08z M50.001,25.279c13.652,0,24.721,11.068,24.721,24.721
	S63.653,74.721,50.001,74.721S25.281,63.652,25.281,50S36.349,25.279,50.001,25.279z M46.169,50.12l10.558,10.608l-3.871,3.854
	L38.463,50.12l14.393-14.461l3.871,3.853L46.169,50.12z"/>
</svg>
