<?xml version="1.0" encoding="utf-8"?>
<!-- Generator: Adobe Illustrator 15.1.0, SVG Export Plug-In . SVG Version: 6.00 Build 0)  -->
<!DOCTYPE svg PUBLIC "-//W3C//DTD SVG 1.1//EN" "http://www.w3.org/Graphics/SVG/1.1/DTD/svg11.dtd">
<svg version="1.1" id="Layer_1" xmlns="http://www.w3.org/2000/svg" xmlns:xlink="http://www.w3.org/1999/xlink" x="0px" y="0px"
	 width="100px" height="100px" viewBox="0 0 100 100" enable-background="new 0 0 100 100" xml:space="preserve">
<path id="arrow-28-icon" d="M30.081,50c0,11.012,8.91,19.92,19.92,19.92c11.011,0,19.92-8.91,19.92-19.92s-8.911-19.92-19.92-19.92
	C38.99,30.08,30.081,38.991,30.081,50z M74.721,50c0,13.652-11.067,24.721-24.72,24.721S25.28,63.652,25.28,50
	s11.068-24.721,24.721-24.721S74.721,36.348,74.721,50z M43.275,39.512l3.871-3.853L61.539,50.12L47.146,64.582l-3.871-3.854
	L53.833,50.12L43.275,39.512z"/>
</svg>
